<svg width="90" height="100" viewBox="0 0 90 100" fill="none" xmlns="http://www.w3.org/2000/svg">
<path d="M72.8475 64.5561C68.9049 69.9711 62.5183 73.4979 55.3226 73.4979H45.226C41.7382 73.4979 38.768 71.2836 37.6433 68.1843C36.255 67.7702 34.8936 67.2327 33.5651 66.5725C30.7517 65.1747 28.1971 63.2809 25.9483 60.9349C11.3616 64.1394 0.444336 77.1369 0.444336 92.6864V94.7188C0.444336 97.5127 2.70934 99.7777 5.50325 99.7777H83.993C86.7869 99.7777 89.0519 97.5127 89.0519 94.7188V92.6864C89.0517 80.6744 82.5363 70.1849 72.8475 64.5561Z" fill="#0B82C6"/>
<path d="M20.5715 50.5077C22.7457 50.5077 24.6382 49.3027 25.6187 47.5243C25.6444 47.5947 25.6706 47.6647 25.6971 47.7346C25.7049 47.7556 25.7127 47.7766 25.7205 47.7977C28.0206 53.852 32.496 58.9273 38.3974 61.1449C39.8247 58.8771 42.3485 57.3688 45.2262 57.3688H55.3228C56.3299 57.3688 57.2673 57.0847 58.089 56.6253C59.469 55.8536 60.7101 53.8959 61.3509 52.8583C62.3764 51.1978 63.1711 49.4389 63.8756 47.5213C64.2715 48.2403 64.816 48.8658 65.4683 49.356V51.8317C65.4683 57.426 60.9171 61.9775 55.3226 61.9775H45.226C43.3173 61.9775 41.7698 63.5249 41.7698 65.4337C41.7698 67.3426 43.3173 68.8899 45.226 68.8899H55.3226C64.7285 68.8899 72.3808 61.2376 72.3808 51.8317V49.356C73.7799 48.3049 74.685 46.632 74.685 44.7475V34.3259V30.3295C74.685 28.4062 73.7418 26.7046 72.2935 25.6583C71.1703 11.4447 59.2453 0.22229 44.748 0.22229C30.2505 0.22229 18.3257 11.4447 17.2025 25.658C15.7542 26.7044 14.811 28.4062 14.811 30.3293V44.7471C14.811 47.9376 17.4029 50.5077 20.5715 50.5077ZM44.748 7.13492C55.48 7.13492 64.3319 15.3364 65.3666 25.801C64.6874 26.3353 64.131 27.0182 63.7476 27.8018C60.4863 19.2932 53.2062 13.3692 44.7478 13.3692C36.1071 13.3692 28.9436 19.4967 25.7607 27.7678C25.7564 27.779 25.7523 27.7905 25.748 27.802C25.3646 27.0184 24.8082 26.3355 24.129 25.8012C25.1643 15.3364 34.016 7.13492 44.748 7.13492Z" fill="#0B82C6"/>
</svg>