<svg width="100" height="100" viewBox="0 0 100 100" fill="none" xmlns="http://www.w3.org/2000/svg">
<path d="M89.994 90.73V78.3464C86.889 76.2147 73.4511 68.0443 50.0002 68.0443C26.4711 68.0443 13.0968 76.2055 10.0063 78.3428V90.73C15.5273 87.4111 28.7962 81.1111 50.0002 81.1111C71.2041 81.1111 84.473 87.4111 89.994 90.73Z" fill="#0B82C6"/>
<path d="M7.11391 95.662C6.9624 95.5493 6.82918 95.4125 6.71943 95.2569C6.70312 95.2326 6.67946 95.2122 6.66316 95.1879C6.5532 95.0076 6.47387 94.8094 6.42873 94.6017C6.418 94.545 6.41024 94.4876 6.40507 94.43C6.38797 94.3469 6.37644 94.2628 6.37047 94.1781V88.5779H0.222168L2.55269 93.3436C2.80839 93.869 2.80839 94.4872 2.55269 95.0125L0.222168 99.778H13.0966L7.17933 95.731C7.15209 95.7124 7.13936 95.6824 7.11391 95.662Z" fill="#0B82C6"/>
<path d="M82.7222 91.1912V98.1576L88.5068 94.1965C86.6436 93.0679 84.7113 92.064 82.7222 91.1912Z" fill="#0B82C6"/>
<path d="M17.2776 98.1576V91.1912C15.2855 92.0642 13.3509 93.0693 11.4858 94.2002L17.2776 98.1576Z" fill="#0B82C6"/>
<path d="M97.4506 93.3436L99.7775 88.5779H93.6294V94.1781C93.6235 94.2628 93.6119 94.3469 93.5948 94.43C93.5897 94.4876 93.5819 94.545 93.5712 94.6017C93.5258 94.8094 93.4467 95.0076 93.3368 95.1879C93.3205 95.2122 93.2968 95.2326 93.2805 95.2569C93.1707 95.4125 93.0375 95.5493 92.886 95.662C92.8606 95.6826 92.8478 95.7124 92.8206 95.731L86.9033 99.778H99.7722L97.4508 95.0123C97.1949 94.4872 97.1949 93.869 97.4506 93.3436Z" fill="#0B82C6"/>
<path d="M30.3066 86.9595C42.5122 94.0895 57.4732 94.0895 69.6787 86.9595C63.2133 85.5238 56.6148 84.8145 50 84.8445C43.3805 84.8166 36.7775 85.5258 30.3066 86.9595Z" fill="#0B82C6"/>
<path fill-rule="evenodd" clip-rule="evenodd" d="M84.8856 71.2587C73.8653 66.4397 61.9759 64.0718 50.0002 64.3109C38.0243 64.072 26.1351 66.4399 15.1146 71.2587C11.7674 65.1477 10.0081 58.2552 10.0063 51.2441C10.0835 34.0021 20.5898 18.6256 36.3533 12.6841L32.1847 18.3906C31.7716 18.9563 31.7052 19.7132 32.0132 20.3455C32.3211 20.9778 32.9507 21.3774 33.6392 21.3774H40.9107V34.4441C40.9107 35.4752 41.7245 36.3108 42.7287 36.3108C43.7328 36.3108 44.5466 35.475 44.5466 34.4441V19.5107C44.5466 18.4796 43.7326 17.644 42.7287 17.644H37.2749L50.0002 0.22229L62.7255 17.644H57.2717C56.2676 17.644 55.4538 18.4798 55.4538 19.5107V34.4441C55.4538 35.4752 56.2678 36.3108 57.2717 36.3108C58.2758 36.3108 59.0896 35.475 59.0896 34.4441V21.3774H66.3611C67.0497 21.3774 67.6792 20.9778 67.9872 20.3455C68.2952 19.713 68.2288 18.9561 67.8156 18.3906L63.647 12.6841C79.4103 18.6256 89.9166 34.0019 89.9938 51.2441C89.992 58.2552 88.2329 65.1479 84.8856 71.2587ZM79.7774 58.5523C79.9975 58.4576 80.2005 58.3251 80.3772 58.1603C80.7091 57.8024 80.8974 57.3291 80.9047 56.835C80.9016 56.7097 80.8894 56.5849 80.8683 56.4616C80.8485 56.3446 80.8117 56.2313 80.7592 56.1256C80.723 56.0108 80.6675 55.9034 80.5956 55.8083C80.5228 55.6962 80.4502 55.6029 80.3774 55.5096C80.2007 55.3448 79.9979 55.2123 79.7775 55.1176C79.335 54.931 78.8385 54.931 78.3959 55.1176C78.1758 55.2123 77.9727 55.3448 77.796 55.5096C77.7232 55.6029 77.6506 55.6962 77.5779 55.8083C77.5057 55.9034 77.4504 56.0108 77.4142 56.1256C77.3615 56.2313 77.325 56.3446 77.3051 56.4616C77.284 56.5851 77.2719 56.7099 77.2687 56.835C77.2756 57.3291 77.4639 57.8024 77.7958 58.1603C77.9726 58.3251 78.1754 58.4576 78.3957 58.5523C78.8359 58.7514 79.3371 58.7514 79.7774 58.5523ZM80.3717 46.9733C81.0606 46.2408 81.0509 45.0766 80.3496 44.3565C79.6483 43.6364 78.5146 43.6264 77.8012 44.3338L66.8938 55.5339C66.2048 56.2664 66.2146 57.4306 66.9159 58.1507C67.6171 58.8706 68.7511 58.8808 69.4643 58.1734L80.3717 46.9733ZM66.3975 45.2801V45.2708C66.3764 45.3941 66.3643 45.519 66.3615 45.6442C66.3685 46.1383 66.5568 46.6115 66.8886 46.9694C67.0654 47.1342 67.2682 47.2667 67.4885 47.3614C67.9287 47.5605 68.43 47.5605 68.8702 47.3614C69.0903 47.2667 69.2933 47.1342 69.4701 46.9694C69.8019 46.6115 69.99 46.1383 69.9972 45.6442C69.9936 45.5221 69.9815 45.4004 69.9608 45.2801C69.9409 45.1632 69.9041 45.0498 69.8516 44.9441C69.8154 44.8293 69.76 44.722 69.688 44.6268C69.6152 44.5147 69.5426 44.4214 69.4699 44.3281C69.2931 44.1633 69.0903 44.0308 68.87 43.9361C68.4274 43.7495 67.9309 43.7495 67.4883 43.9361C67.2682 44.0308 67.0652 44.1633 66.8884 44.3281C66.8156 44.4214 66.7431 44.5147 66.6703 44.6268C66.5981 44.722 66.5429 44.8293 66.5067 44.9441C66.454 45.0498 66.4174 45.1632 66.3975 45.2801ZM23.7871 53.1295H24.1655L22.6396 55.4122C22.2246 56.0389 22.0171 56.5516 22.0171 56.9503C22.0171 57.284 22.1432 57.5729 22.3955 57.817C22.6559 58.053 22.9692 58.171 23.3354 58.171C23.7342 58.171 24.0679 58.0734 24.3364 57.8781C24.6131 57.6746 24.9264 57.2921 25.2764 56.7306L29.3169 50.3463C30.0249 49.2314 30.3789 48.1368 30.3789 47.0626C30.3789 45.8175 29.9761 44.8043 29.1704 44.0231C28.3647 43.2337 27.319 42.839 26.0332 42.839C24.4707 42.839 23.132 43.4615 22.0171 44.7067C20.8045 46.0576 20.1982 47.5712 20.1982 49.2477C20.1982 50.4033 20.5278 51.3392 21.187 52.0553C21.8462 52.7714 22.7129 53.1295 23.7871 53.1295ZM24.0557 46.6842C24.6416 45.9192 25.2479 45.5367 25.8745 45.5367C26.3058 45.5367 26.6639 45.6873 26.9487 45.9884C27.2336 46.2814 27.376 46.6517 27.376 47.0992C27.376 47.9375 27.083 48.7309 26.4971 49.4796C25.9111 50.2202 25.2886 50.5905 24.6294 50.5905C24.2144 50.5905 23.8685 50.448 23.5918 50.1632C23.3232 49.8702 23.189 49.5081 23.189 49.0768C23.189 48.2467 23.4779 47.4492 24.0557 46.6842ZM35.457 53.1295H35.8354L34.3096 55.4122C33.8945 56.0389 33.687 56.5516 33.687 56.9503C33.687 57.284 33.8132 57.5729 34.0654 57.817C34.3258 58.053 34.6392 58.171 35.0054 58.171C35.4041 58.171 35.7378 58.0734 36.0063 57.8781C36.283 57.6746 36.5964 57.2921 36.9463 56.7306L40.9868 50.3463C41.6948 49.2314 42.0488 48.1368 42.0488 47.0626C42.0488 45.8175 41.646 44.8043 40.8403 44.0231C40.0347 43.2337 38.9889 42.839 37.7031 42.839C36.1406 42.839 34.8019 43.4615 33.687 44.7067C32.4744 46.0576 31.8682 47.5712 31.8682 49.2477C31.8682 50.4033 32.1978 51.3392 32.8569 52.0553C33.5161 52.7714 34.3828 53.1295 35.457 53.1295ZM35.7256 46.6842C36.3115 45.9192 36.9178 45.5367 37.5444 45.5367C37.9757 45.5367 38.3338 45.6873 38.6187 45.9884C38.9035 46.2814 39.0459 46.6517 39.0459 47.0992C39.0459 47.9375 38.7529 48.7309 38.167 49.4796C37.5811 50.2202 36.9585 50.5905 36.2993 50.5905C35.8843 50.5905 35.5384 50.448 35.2617 50.1632C34.9932 49.8702 34.8589 49.5081 34.8589 49.0768C34.8589 48.2467 35.1478 47.4492 35.7256 46.6842ZM45.0762 55.4244C44.7425 55.0908 44.3438 54.924 43.8799 54.924C43.4079 54.924 43.005 55.0908 42.6714 55.4244C42.3377 55.7581 42.1709 56.1569 42.1709 56.6207C42.1709 57.0927 42.3377 57.4956 42.6714 57.8292C43.005 58.1629 43.4079 58.3297 43.8799 58.3297C44.3438 58.3297 44.7425 58.1629 45.0762 57.8292C45.4098 57.4956 45.5767 57.0927 45.5767 56.6207C45.5767 56.1569 45.4098 55.7581 45.0762 55.4244ZM53.377 53.1295H53.7554L52.2295 55.4122C51.8145 56.0389 51.6069 56.5516 51.6069 56.9503C51.6069 57.284 51.7331 57.5729 51.9854 57.817C52.2458 58.053 52.5591 58.171 52.9253 58.171C53.3241 58.171 53.6577 58.0734 53.9263 57.8781C54.203 57.6746 54.5163 57.2921 54.8662 56.7306L58.9067 50.3463C59.6147 49.2314 59.9688 48.1368 59.9688 47.0626C59.9688 45.8175 59.5659 44.8043 58.7603 44.0231C57.9546 43.2337 56.9089 42.839 55.623 42.839C54.0605 42.839 52.7218 43.4615 51.6069 44.7067C50.3944 46.0576 49.7881 47.5712 49.7881 49.2477C49.7881 50.4033 50.1177 51.3392 50.7769 52.0553C51.436 52.7714 52.3027 53.1295 53.377 53.1295ZM53.6455 46.6842C54.2314 45.9192 54.8377 45.5367 55.4644 45.5367C55.8957 45.5367 56.2537 45.6873 56.5386 45.9884C56.8234 46.2814 56.9658 46.6517 56.9658 47.0992C56.9658 47.9375 56.6729 48.7309 56.0869 49.4796C55.501 50.2202 54.8784 50.5905 54.2192 50.5905C53.8042 50.5905 53.4583 50.448 53.1816 50.1632C52.9131 49.8702 52.7788 49.5081 52.7788 49.0768C52.7788 48.2467 53.0677 47.4492 53.6455 46.6842Z" fill="#0B82C6"/>
</svg>